<svg width="15" height="15" viewBox="0 0 15 15" fill="none" xmlns="http://www.w3.org/2000/svg">
<path d="M1.66667 15C1.20833 15 0.816111 14.8369 0.49 14.5108C0.163889 14.1847 0.000555556 13.7922 0 13.3333V1.66667C0 1.20833 0.163333 0.816111 0.49 0.49C0.816667 0.163889 1.20889 0.000555556 1.66667 0H10.8333L15 4.16667V13.3333C15 13.7917 14.8369 14.1842 14.5108 14.5108C14.1847 14.8375 13.7922 15.0006 13.3333 15H1.66667ZM3.33333 11.6667H11.6667V10H3.33333V11.6667ZM3.33333 8.33333H11.6667V6.66667H3.33333V8.33333ZM10 5H13.3333L10 1.66667V5ZM3.33333 5H7.5V3.33333H3.33333V5Z" fill="white"/>
</svg>
