<svg width="20" height="20" viewBox="0 0 20 20" fill="none" xmlns="http://www.w3.org/2000/svg">
<path d="M16.2508 8.12381C16.2508 9.91652 15.6687 11.5725 14.6882 12.9161L19.6338 17.8646C20.1221 18.3528 20.1221 19.1456 19.6338 19.6338C19.1455 20.1221 18.3525 20.1221 17.8642 19.6338L12.9186 14.6853C11.5748 15.6657 9.91845 16.2476 8.1254 16.2476C3.6369 16.2476 0 12.6114 0 8.12381C0 3.63619 3.6369 0 8.1254 0C12.6139 0 16.2508 3.63619 16.2508 8.12381ZM4.0627 8.43626V10.9359C4.0627 11.4554 4.48069 11.8733 5.00024 11.8733C5.5198 11.8733 5.93779 11.4554 5.93779 10.9359V8.43626C5.93779 7.91681 5.5198 7.4989 5.00024 7.4989C4.48069 7.4989 4.0627 7.91681 4.0627 8.43626ZM7.18785 4.68681V10.9359C7.18785 11.4554 7.60584 11.8733 8.1254 11.8733C8.64495 11.8733 9.06294 11.4554 9.06294 10.9359V4.68681C9.06294 4.16736 8.64495 3.74945 8.1254 3.74945C7.60584 3.74945 7.18785 4.16736 7.18785 4.68681ZM10.313 7.18645V10.9359C10.313 11.4554 10.731 11.8733 11.2505 11.8733C11.7701 11.8733 12.1881 11.4554 12.1881 10.9359V7.18645C12.1881 6.66699 11.7701 6.24908 11.2505 6.24908C10.731 6.24908 10.313 6.66699 10.313 7.18645Z" fill="white"/>
</svg>
