<svg width="23" height="20" viewBox="0 0 23 20" fill="none" xmlns="http://www.w3.org/2000/svg">
<path d="M11.7949 4.70588H2.35897C1.73334 4.70588 1.13332 4.95378 0.690928 5.39504C0.248534 5.83631 0 6.43478 0 7.05882V11.7647C0 12.3887 0.248534 12.9872 0.690928 13.4285C1.13332 13.8697 1.73334 14.1176 2.35897 14.1176H3.53846V18.8235C3.53846 19.1355 3.66273 19.4348 3.88393 19.6554C4.10512 19.8761 4.40513 20 4.71795 20H7.07692C7.38974 20 7.68975 19.8761 7.91095 19.6554C8.13214 19.4348 8.25641 19.1355 8.25641 18.8235V14.1176H11.7949L17.6923 18.8235V0L11.7949 4.70588ZM23 9.41177C23 11.4235 21.8677 13.2471 20.0513 14.1176V4.70588C21.8559 5.58824 23 7.41177 23 9.41177Z" fill="white"/>
</svg>
