<svg width="20" height="15" viewBox="0 0 20 15" fill="none" xmlns="http://www.w3.org/2000/svg">
<path d="M20 13.75V15H0V0H1.25V13.75H20ZM18.75 1.5625V5.81375C18.7499 5.87593 18.7311 5.93664 18.6962 5.98807C18.6612 6.03949 18.6117 6.07927 18.5539 6.10227C18.4961 6.12527 18.4328 6.13044 18.372 6.11711C18.3113 6.10379 18.256 6.07257 18.2131 6.0275L17.0319 4.84625L10.8506 11.0256C10.8219 11.0567 10.7872 11.0815 10.7484 11.0984C10.7097 11.1154 10.6679 11.1241 10.6256 11.1241C10.5834 11.1241 10.5415 11.1154 10.5028 11.0984C10.4641 11.0815 10.4293 11.0567 10.4006 11.0256L8.12563 8.75L4.06313 12.8125L2.18812 10.9375L7.90062 5.22438C7.9293 5.19332 7.9641 5.16854 8.00282 5.15159C8.04154 5.13464 8.08335 5.12588 8.12563 5.12588C8.1679 5.12588 8.20971 5.13464 8.24843 5.15159C8.28715 5.16854 8.32195 5.19332 8.35063 5.22438L10.6256 7.5L15.1569 2.96875L13.9756 1.7875C13.93 1.74484 13.8983 1.68942 13.8847 1.62847C13.871 1.56752 13.8761 1.50387 13.8992 1.44584C13.9222 1.3878 13.9623 1.33807 14.014 1.30313C14.0658 1.2682 14.1269 1.24968 14.1894 1.25H18.4531C18.5327 1.25 18.609 1.28161 18.6653 1.33787C18.7215 1.39413 18.7531 1.47044 18.7531 1.55V1.56312L18.75 1.5625Z" fill="white"/>
</svg>
