<svg width="10" height="15" viewBox="0 0 10 15" fill="none" xmlns="http://www.w3.org/2000/svg">
<path d="M6.00001 14H4.00001C3.86741 14 3.74023 14.0527 3.64646 14.1465C3.55269 14.2402 3.50001 14.3674 3.50001 14.5C3.50001 14.6326 3.55269 14.7598 3.64646 14.8536C3.74023 14.9473 3.86741 15 4.00001 15H6.00001C6.13262 15 6.2598 14.9473 6.35357 14.8536C6.44734 14.7598 6.50001 14.6326 6.50001 14.5C6.50001 14.3674 6.44734 14.2402 6.35357 14.1465C6.2598 14.0527 6.13262 14 6.00001 14ZM6.50001 12.5H3.50001C3.36741 12.5 3.24023 12.5527 3.14646 12.6465C3.05269 12.7402 3.00001 12.8674 3.00001 13C3.00001 13.1326 3.05269 13.2598 3.14646 13.3536C3.24023 13.4473 3.36741 13.5 3.50001 13.5H6.50001C6.63262 13.5 6.7598 13.4473 6.85357 13.3536C6.94734 13.2598 7.00001 13.1326 7.00001 13C7.00001 12.8674 6.94734 12.7402 6.85357 12.6465C6.7598 12.5527 6.63262 12.5 6.50001 12.5ZM8.54439 1.45908C7.6047 0.518139 6.34595 1.41702e-05 5.00001 1.41702e-05C4.34297 -0.00155191 3.69208 0.126708 3.08475 0.377427C2.47741 0.628146 1.92559 0.996383 1.46099 1.46099C0.996383 1.92559 0.628146 2.47741 0.377427 3.08475C0.126708 3.69208 -0.00155191 4.34297 1.41702e-05 5.00001C1.41702e-05 6.45689 0.558452 7.8197 1.53126 8.73876L1.66751 8.86658C2.23033 9.39283 3.00001 10.1138 3.00001 10.75V11.5C3.00001 11.6326 3.05269 11.7598 3.14646 11.8536C3.24023 11.9473 3.36741 12 3.50001 12H4.25001C4.31632 12 4.37991 11.9737 4.42679 11.9268C4.47368 11.8799 4.50001 11.8163 4.50001 11.75V8.08814C4.50003 8.03758 4.48472 7.98821 4.4561 7.94653C4.42748 7.90486 4.38689 7.87284 4.3397 7.8547C4.05098 7.73692 3.77669 7.58646 3.5222 7.40626C3.46501 7.36974 3.41585 7.32196 3.37772 7.26584C3.33959 7.20971 3.31328 7.14641 3.3004 7.07978C3.28751 7.01316 3.28833 6.94461 3.30279 6.87832C3.31725 6.81202 3.34505 6.74936 3.3845 6.69415C3.42395 6.63894 3.47423 6.59234 3.53227 6.55719C3.59031 6.52203 3.6549 6.49906 3.7221 6.48967C3.78931 6.48028 3.85772 6.48466 3.92317 6.50256C3.98862 6.52046 4.04975 6.55149 4.10283 6.59376C4.33408 6.75751 4.77939 7.00001 5.00001 7.00001C5.22064 7.00001 5.66595 6.75689 5.89783 6.59376C6.00579 6.52589 6.13561 6.50183 6.26073 6.52652C6.38585 6.5512 6.4968 6.62277 6.5709 6.72656C6.64499 6.83036 6.67662 6.95854 6.65932 7.08489C6.64202 7.21124 6.5771 7.32621 6.47783 7.40626C6.22329 7.58613 5.94901 7.73628 5.66033 7.85376C5.61314 7.8719 5.57255 7.90392 5.54393 7.9456C5.51531 7.98727 5.5 8.03664 5.50001 8.0872V11.75C5.50001 11.8163 5.52635 11.8799 5.57324 11.9268C5.62012 11.9737 5.68371 12 5.75001 12H6.50001C6.63262 12 6.7598 11.9473 6.85357 11.8536C6.94734 11.7598 7.00001 11.6326 7.00001 11.5V10.75C7.00001 10.1288 7.76126 9.40845 8.3172 8.8822L8.47064 8.73658C9.47126 7.78126 10 6.48783 10 5.00001C10.0033 4.3429 9.87639 3.69165 9.62655 3.08388C9.3767 2.47611 9.0089 1.92387 8.54439 1.45908Z" fill="white"/>
</svg>
