<svg width="20" height="15" viewBox="0 0 20 15" fill="none" xmlns="http://www.w3.org/2000/svg">
<path fill-rule="evenodd" clip-rule="evenodd" d="M10 0C8.89209 0 7.6 0.0267499 6.34047 0.0630533L6.2893 0.0649639C5.00744 0.102223 3.97302 0.131839 3.15814 0.270365C2.30884 0.414623 1.60372 0.69072 1.04 1.28591C0.474419 1.883 0.227907 2.62149 0.111628 3.50519C6.93077e-09 4.35545 0 5.43309 0 6.7725V8.22846C0 9.56595 6.93077e-09 10.6436 0.111628 11.4948C0.226977 12.3785 0.474419 13.117 1.04 13.7141C1.60372 14.3102 2.30884 14.5854 3.15814 14.7296C3.97302 14.8682 5.00744 14.8978 6.2893 14.935L6.34047 14.9369C7.60093 14.9733 8.89209 15 10 15C11.1079 15 12.4 14.9733 13.6595 14.9369L13.7107 14.935C14.9926 14.8978 16.027 14.8682 16.8419 14.7296C17.6912 14.5854 18.3963 14.3093 18.96 13.7141C19.5256 13.117 19.773 12.3785 19.8884 11.4948C20 10.6445 20 9.56691 20 8.2275V6.77154C20 5.43309 20 4.35545 19.8884 3.50519C19.773 2.62149 19.5256 1.883 18.96 1.28591C18.3963 0.689765 17.6912 0.414623 16.8419 0.270365C16.027 0.131839 14.9926 0.102223 13.7098 0.0649639L13.6595 0.0630533C12.44 0.0250386 11.2201 0.00401893 10 0ZM8.9507 10.0322C8.84461 10.0944 8.72447 10.1269 8.60229 10.1265C8.48012 10.1261 8.3602 10.0927 8.25452 10.0297C8.14884 9.96678 8.06112 9.87641 8.00013 9.76769C7.93914 9.65897 7.90702 9.5357 7.90698 9.41023V5.58882C7.90702 5.46334 7.93914 5.34008 8.00013 5.23135C8.06112 5.12263 8.14884 5.03227 8.25452 4.9693C8.3602 4.90633 8.48012 4.87296 8.60229 4.87254C8.72447 4.87211 8.84461 4.90465 8.9507 4.96688L12.2065 6.87759C12.3132 6.94028 12.4019 7.03082 12.4636 7.14004C12.5253 7.24925 12.5577 7.37327 12.5577 7.49952C12.5577 7.62578 12.5253 7.74979 12.4636 7.85901C12.4019 7.96822 12.3132 8.05876 12.2065 8.12146L8.9507 10.0322Z" fill="#C4C4C4"/>
</svg>
