<svg width="20" height="18" viewBox="0 0 20 18" fill="none" xmlns="http://www.w3.org/2000/svg">
<path d="M10.1 18C9.81667 18 9.57933 17.904 9.388 17.712C9.19667 17.52 9.10067 17.2827 9.1 17C9.1 16.8833 9.125 16.7623 9.175 16.637C9.225 16.5117 9.3 16.3993 9.4 16.3L14.025 11.675L13.3 10.95L8.7 15.575C8.6 15.675 8.49167 15.75 8.375 15.8C8.25833 15.85 8.13333 15.875 8 15.875C7.71667 15.875 7.47933 15.7793 7.288 15.588C7.09667 15.3967 7.00067 15.159 7 14.875C7 14.7083 7.025 14.5707 7.075 14.462C7.125 14.3533 7.19167 14.2577 7.275 14.175L11.9 9.55L11.2 8.85L6.575 13.45C6.475 13.55 6.36667 13.625 6.25 13.675C6.13333 13.725 6 13.75 5.85 13.75C5.58333 13.75 5.35 13.65 5.15 13.45C4.95 13.25 4.85 13.0167 4.85 12.75C4.85 12.6167 4.875 12.4917 4.925 12.375C4.975 12.2583 5.05 12.15 5.15 12.05L9.775 7.425L9.05 6.725L4.45 11.35C4.36667 11.4333 4.26667 11.5 4.15 11.55C4.03333 11.6 3.89167 11.625 3.725 11.625C3.44167 11.625 3.204 11.529 3.012 11.337C2.82 11.145 2.72433 10.9077 2.725 10.625C2.725 10.4917 2.75 10.3667 2.8 10.25C2.85 10.1333 2.925 10.025 3.025 9.925L8.6 4.35L12.35 8.125C12.5333 8.30834 12.75 8.45434 13 8.563C13.25 8.67167 13.5 8.72567 13.75 8.725C14.2833 8.725 14.75 8.53767 15.15 8.163C15.55 7.78834 15.75 7.309 15.75 6.725C15.75 6.49167 15.7083 6.25 15.625 6C15.5417 5.75 15.3917 5.51667 15.175 5.3L10.7 0.825004C10.9833 0.558338 11.3 0.354338 11.65 0.213004C12 0.0716709 12.35 0.000670851 12.7 4.1841e-06C13.1333 4.1841e-06 13.5333 0.0710042 13.9 0.213004C14.2667 0.355004 14.6 0.575671 14.9 0.875004L19.125 5.125C19.425 5.425 19.646 5.75834 19.788 6.125C19.93 6.49167 20.0007 6.91667 20 7.4C20 7.73334 19.925 8.071 19.775 8.413C19.625 8.755 19.4083 9.06734 19.125 9.35L10.8 17.7C10.6667 17.8333 10.55 17.9167 10.45 17.95C10.35 17.9833 10.2333 18 10.1 18ZM1.525 10L0.875 9.35C0.591667 9.08334 0.375 8.76667 0.225 8.4C0.0749999 8.03334 0 7.65 0 7.25C0 6.81667 0.0833333 6.41667 0.25 6.05C0.416667 5.68334 0.625 5.375 0.875 5.125L5.1 0.875004C5.36667 0.608338 5.68333 0.395671 6.05 0.237004C6.41667 0.0783375 6.775 -0.000662483 7.125 4.1841e-06C7.575 4.1841e-06 7.975 0.0626708 8.325 0.188004C8.675 0.313338 9.01667 0.542338 9.35 0.875004L14.475 6C14.575 6.1 14.65 6.20834 14.7 6.325C14.75 6.44167 14.775 6.56667 14.775 6.7C14.775 6.96667 14.675 7.2 14.475 7.4C14.275 7.6 14.0417 7.7 13.775 7.7C13.625 7.7 13.5 7.67934 13.4 7.638C13.3 7.59667 13.1917 7.51734 13.075 7.4L8.575 2.95L1.525 10Z" fill="white"/>
</svg>
